<svg width="16" height="16" viewBox="0 0 16 16" fill="none" xmlns="http://www.w3.org/2000/svg">
<g clip-path="url(#clip0_10_430)">
<path d="M12.8219 7.21876L13.175 6.86563L12.1157 5.80626L10.175 3.86563L9.11565 2.80626L8.76253 3.15938L8.05628 3.86563L1.83128 10.0906C1.50628 10.4156 1.26878 10.8188 1.13753 11.2594L0.0312793 15.0219C-0.0468457 15.2844 0.0250293 15.5688 0.221904 15.7625C0.418779 15.9563 0.700029 16.0281 0.962529 15.9531L4.7219 14.8469C5.16253 14.7156 5.56565 14.4781 5.89065 14.1531L12.1157 7.92813L12.8219 7.21876ZM5.00003 12.4813L4.71565 13.1906C4.59065 13.2875 4.45003 13.3594 4.30003 13.4063L1.85628 14.125L2.57503 11.6844C2.61878 11.5313 2.69378 11.3906 2.79065 11.2688L3.50003 10.9844V11.9844C3.50003 12.2594 3.72503 12.4844 4.00003 12.4844H5.00003V12.4813ZM11.3344 0.584381L10.8844 1.03751L10.1782 1.74376L9.8219 2.09688L10.8813 3.15626L12.8219 5.09688L13.8813 6.15626L14.2344 5.80313L14.9407 5.09688L15.3938 4.64376C16.175 3.86251 16.175 2.59688 15.3938 1.81563L14.1657 0.584381C13.3844 -0.196869 12.1188 -0.196869 11.3375 0.584381H11.3344ZM9.85315 5.83438L5.35315 10.3344C5.1594 10.5281 4.84065 10.5281 4.6469 10.3344C4.45315 10.1406 4.45315 9.82188 4.6469 9.62813L9.1469 5.12813C9.34066 4.93438 9.6594 4.93438 9.85315 5.12813C10.0469 5.32188 10.0469 5.64063 9.85315 5.83438Z" fill="#F8FCFF"/>
</g>
<defs>
<clipPath id="clip0_10_430">
<rect width="16" height="16" fill="white"/>
</clipPath>
</defs>
</svg>
